<mxfile host="app.diagrams.net" agent="Mozilla/5.0 (Windows NT 10.0; Win64; x64) AppleWebKit/537.36 (KHTML, like Gecko) Chrome/129.0.0.0 Safari/537.36" version="24.7.17">
  <diagram id="C5RBs43oDa-KdzZeNtuy" name="Page-1">
    <mxGraphModel dx="579" dy="674" grid="1" gridSize="10" guides="1" tooltips="1" connect="1" arrows="1" fold="1" page="1" pageScale="1" pageWidth="827" pageHeight="1169" math="0" shadow="0">
      <root>
        <mxCell id="WIyWlLk6GJQsqaUBKTNV-0" />
        <mxCell id="WIyWlLk6GJQsqaUBKTNV-1" parent="WIyWlLk6GJQsqaUBKTNV-0" />
        <mxCell id="EBG2KZsID0_-JYgn3Mey-29" style="edgeStyle=orthogonalEdgeStyle;rounded=0;orthogonalLoop=1;jettySize=auto;html=1;entryX=0.5;entryY=0;entryDx=0;entryDy=0;" parent="WIyWlLk6GJQsqaUBKTNV-1" source="EBG2KZsID0_-JYgn3Mey-0" target="EBG2KZsID0_-JYgn3Mey-3" edge="1">
          <mxGeometry relative="1" as="geometry" />
        </mxCell>
        <mxCell id="EBG2KZsID0_-JYgn3Mey-0" value="Начало" style="ellipse;whiteSpace=wrap;html=1;" parent="WIyWlLk6GJQsqaUBKTNV-1" vertex="1">
          <mxGeometry x="130" y="10" width="120" height="50" as="geometry" />
        </mxCell>
        <mxCell id="EBG2KZsID0_-JYgn3Mey-15" value="" style="edgeStyle=orthogonalEdgeStyle;rounded=0;orthogonalLoop=1;jettySize=auto;html=1;" parent="WIyWlLk6GJQsqaUBKTNV-1" source="EBG2KZsID0_-JYgn3Mey-10" target="EBG2KZsID0_-JYgn3Mey-11" edge="1">
          <mxGeometry relative="1" as="geometry" />
        </mxCell>
        <mxCell id="EBG2KZsID0_-JYgn3Mey-1" value="Приведение системы к виду, удобному для итераций (x = Bx + c)" style="rounded=1;whiteSpace=wrap;html=1;" parent="WIyWlLk6GJQsqaUBKTNV-1" vertex="1">
          <mxGeometry x="260" y="140" width="130" height="60" as="geometry" />
        </mxCell>
        <mxCell id="EBG2KZsID0_-JYgn3Mey-5" value="Да" style="edgeStyle=orthogonalEdgeStyle;rounded=0;orthogonalLoop=1;jettySize=auto;html=1;exitX=1;exitY=0.5;exitDx=0;exitDy=0;entryX=0.5;entryY=0;entryDx=0;entryDy=0;fontFamily=Times New Roman;fontSize=14;" parent="WIyWlLk6GJQsqaUBKTNV-1" source="EBG2KZsID0_-JYgn3Mey-3" target="EBG2KZsID0_-JYgn3Mey-1" edge="1">
          <mxGeometry relative="1" as="geometry" />
        </mxCell>
        <mxCell id="EBG2KZsID0_-JYgn3Mey-31" style="edgeStyle=orthogonalEdgeStyle;rounded=0;orthogonalLoop=1;jettySize=auto;html=1;entryX=0.5;entryY=0;entryDx=0;entryDy=0;" parent="WIyWlLk6GJQsqaUBKTNV-1" source="EBG2KZsID0_-JYgn3Mey-6" target="EBG2KZsID0_-JYgn3Mey-24" edge="1">
          <mxGeometry relative="1" as="geometry">
            <Array as="points">
              <mxPoint x="55" y="460" />
              <mxPoint x="470" y="460" />
            </Array>
          </mxGeometry>
        </mxCell>
        <mxCell id="EBG2KZsID0_-JYgn3Mey-6" value="&lt;font style=&quot;font-size: 12px;&quot;&gt;Вызов ошибки&lt;/font&gt;" style="rounded=1;whiteSpace=wrap;html=1;" parent="WIyWlLk6GJQsqaUBKTNV-1" vertex="1">
          <mxGeometry x="10" y="220" width="90" height="40" as="geometry" />
        </mxCell>
        <mxCell id="EBG2KZsID0_-JYgn3Mey-7" value="Нет" style="edgeStyle=orthogonalEdgeStyle;rounded=0;orthogonalLoop=1;jettySize=auto;html=1;exitX=0;exitY=0.5;exitDx=0;exitDy=0;entryX=0.5;entryY=0;entryDx=0;entryDy=0;" parent="WIyWlLk6GJQsqaUBKTNV-1" source="EBG2KZsID0_-JYgn3Mey-3" target="EBG2KZsID0_-JYgn3Mey-6" edge="1">
          <mxGeometry relative="1" as="geometry" />
        </mxCell>
        <mxCell id="EBG2KZsID0_-JYgn3Mey-3" value="Применим ли метод" style="rhombus;whiteSpace=wrap;html=1;" parent="WIyWlLk6GJQsqaUBKTNV-1" vertex="1">
          <mxGeometry x="95" y="80" width="190" height="70" as="geometry" />
        </mxCell>
        <mxCell id="EBG2KZsID0_-JYgn3Mey-17" value="" style="edgeStyle=orthogonalEdgeStyle;rounded=0;orthogonalLoop=1;jettySize=auto;html=1;" parent="WIyWlLk6GJQsqaUBKTNV-1" source="EBG2KZsID0_-JYgn3Mey-11" target="EBG2KZsID0_-JYgn3Mey-12" edge="1">
          <mxGeometry relative="1" as="geometry" />
        </mxCell>
        <mxCell id="EBG2KZsID0_-JYgn3Mey-11" value="&lt;div&gt;x_new := (B . x_old) + c;&lt;/div&gt;&lt;div&gt;diff := evalf(Norm(x_new - x_old, infinity));&lt;/div&gt;" style="rounded=1;whiteSpace=wrap;html=1;" parent="WIyWlLk6GJQsqaUBKTNV-1" vertex="1">
          <mxGeometry x="230" y="280" width="190" height="50" as="geometry" />
        </mxCell>
        <mxCell id="EBG2KZsID0_-JYgn3Mey-18" value="&lt;font face=&quot;Helvetica&quot; style=&quot;font-size: 12px;&quot;&gt;Нет&lt;/font&gt;" style="edgeStyle=orthogonalEdgeStyle;rounded=0;orthogonalLoop=1;jettySize=auto;html=1;" parent="WIyWlLk6GJQsqaUBKTNV-1" source="EBG2KZsID0_-JYgn3Mey-12" target="EBG2KZsID0_-JYgn3Mey-14" edge="1">
          <mxGeometry relative="1" as="geometry" />
        </mxCell>
        <mxCell id="EBG2KZsID0_-JYgn3Mey-25" value="&lt;font face=&quot;Times New Roman&quot; style=&quot;font-size: 14px;&quot;&gt;Да&lt;/font&gt;" style="edgeStyle=orthogonalEdgeStyle;rounded=0;orthogonalLoop=1;jettySize=auto;html=1;" parent="WIyWlLk6GJQsqaUBKTNV-1" source="EBG2KZsID0_-JYgn3Mey-12" target="EBG2KZsID0_-JYgn3Mey-13" edge="1">
          <mxGeometry relative="1" as="geometry" />
        </mxCell>
        <mxCell id="EBG2KZsID0_-JYgn3Mey-12" value="diff &amp;lt;= epsilon" style="rhombus;whiteSpace=wrap;html=1;" parent="WIyWlLk6GJQsqaUBKTNV-1" vertex="1">
          <mxGeometry x="272.5" y="375" width="95" height="50" as="geometry" />
        </mxCell>
        <mxCell id="EBG2KZsID0_-JYgn3Mey-27" style="edgeStyle=orthogonalEdgeStyle;rounded=0;orthogonalLoop=1;jettySize=auto;html=1;entryX=0.5;entryY=0;entryDx=0;entryDy=0;" parent="WIyWlLk6GJQsqaUBKTNV-1" source="EBG2KZsID0_-JYgn3Mey-13" target="EBG2KZsID0_-JYgn3Mey-24" edge="1">
          <mxGeometry relative="1" as="geometry" />
        </mxCell>
        <mxCell id="EBG2KZsID0_-JYgn3Mey-13" value="&lt;div&gt;print(&quot;Сошлось за&quot;, k, &quot;итераций&quot;);&lt;/div&gt;&lt;div&gt;return x_new;&lt;/div&gt;" style="rounded=1;whiteSpace=wrap;html=1;" parent="WIyWlLk6GJQsqaUBKTNV-1" vertex="1">
          <mxGeometry x="410" y="370" width="120" height="60" as="geometry" />
        </mxCell>
        <mxCell id="EBG2KZsID0_-JYgn3Mey-19" style="edgeStyle=orthogonalEdgeStyle;rounded=0;orthogonalLoop=1;jettySize=auto;html=1;entryX=0;entryY=0.5;entryDx=0;entryDy=0;" parent="WIyWlLk6GJQsqaUBKTNV-1" source="EBG2KZsID0_-JYgn3Mey-14" target="EBG2KZsID0_-JYgn3Mey-11" edge="1">
          <mxGeometry relative="1" as="geometry" />
        </mxCell>
        <mxCell id="EBG2KZsID0_-JYgn3Mey-14" value="x_old := x_new" style="rounded=1;whiteSpace=wrap;html=1;" parent="WIyWlLk6GJQsqaUBKTNV-1" vertex="1">
          <mxGeometry x="130" y="385" width="105" height="30" as="geometry" />
        </mxCell>
        <mxCell id="EBG2KZsID0_-JYgn3Mey-24" value="Конец" style="ellipse;whiteSpace=wrap;html=1;" parent="WIyWlLk6GJQsqaUBKTNV-1" vertex="1">
          <mxGeometry x="410" y="490" width="120" height="50" as="geometry" />
        </mxCell>
        <mxCell id="EBG2KZsID0_-JYgn3Mey-30" value="" style="edgeStyle=orthogonalEdgeStyle;rounded=0;orthogonalLoop=1;jettySize=auto;html=1;" parent="WIyWlLk6GJQsqaUBKTNV-1" source="EBG2KZsID0_-JYgn3Mey-1" target="EBG2KZsID0_-JYgn3Mey-10" edge="1">
          <mxGeometry relative="1" as="geometry">
            <mxPoint x="320" y="200" as="sourcePoint" />
            <mxPoint x="380" y="350" as="targetPoint" />
          </mxGeometry>
        </mxCell>
        <mxCell id="EBG2KZsID0_-JYgn3Mey-10" value="do" style="shape=hexagon;perimeter=hexagonPerimeter2;whiteSpace=wrap;html=1;fixedSize=1;" parent="WIyWlLk6GJQsqaUBKTNV-1" vertex="1">
          <mxGeometry x="290" y="220" width="70" height="40" as="geometry" />
        </mxCell>
      </root>
    </mxGraphModel>
  </diagram>
</mxfile>
